<svg xmlns="http://www.w3.org/2000/svg" x="0px" y="0px" width="50" height="50" viewBox="0 0 48 48">
<path d="M 5.0371094 1.5 C 4.4581094 1.475 3.9182031 1.808125 3.6582031 2.328125 C 0.64920312 8.347125 2.1935 16.522906 6.8125 20.378906 C 5.1315 23.056906 3.3336562 28.01625 4.0976562 30.03125 C 4.1476562 30.16225 4.2148281 30.286438 4.2988281 30.398438 C 4.4398281 30.587438 7.5942813 34.727781 12.488281 36.175781 C 13.343281 38.682781 14.537453 40.658547 15.439453 41.560547 C 16.837453 42.957547 22.294047 47 24.998047 47 C 27.703047 47 33.162547 42.957547 34.560547 41.560547 C 35.654547 40.466547 37.246266 38.253234 38.197266 35.365234 C 38.217266 35.355234 38.238812 35.352797 38.257812 35.341797 C 41.882812 33.222797 45.412547 29.709547 45.560547 29.560547 C 45.797547 29.324547 45.947281 29.015594 45.988281 28.683594 C 46.409281 25.255594 45.010359 21.532484 43.818359 19.521484 C 45.928359 17.691484 47 14.667 47 10.5 C 47 7.071 45.832703 3.3219375 45.345703 2.3359375 C 45.102703 1.8439375 44.6105 1.5239531 44.0625 1.5019531 C 43.5265 1.4839531 42.998844 1.7585156 42.714844 2.2285156 C 42.686844 2.2755156 40.051297 6.5989375 36.654297 8.5859375 C 35.746297 7.9289375 34.608141 7.5062188 33.369141 7.4492188 C 33.802141 6.7652187 34.087891 5.9457344 34.087891 4.9277344 C 34.087891 4.0987344 33.416891 3.4277344 32.587891 3.4277344 C 31.758891 3.4277344 31.087891 4.0987344 31.087891 4.9277344 C 31.087891 5.4497344 30.900719 5.8539063 30.511719 6.2539062 C 29.864719 4.6859063 28.807969 3.4513906 27.167969 2.2753906 C 26.494969 1.7923906 25.557219 1.9480938 25.074219 2.6210938 C 24.592219 3.2940938 24.747875 4.2318438 25.421875 4.7148438 C 26.237875 5.2998437 26.815188 5.8525156 27.242188 6.4785156 C 26.782187 6.3245156 26.307687 6.1988125 25.804688 6.1328125 C 22.080687 5.6458125 18.146594 7.60975 15.683594 9.59375 C 12.632594 9.20475 7.7150469 5.4723906 6.3730469 2.4003906 C 6.1400469 1.8663906 5.6191094 1.516 5.0371094 1.5 z M 43.474609 6.3300781 C 43.760609 7.5820781 44 9.089 44 10.5 C 44 13.805 43.289984 16.032344 41.833984 17.277344 C 41.639984 17.071344 41.422844 16.780844 41.214844 16.464844 C 40.981844 15.895844 40.748781 15.328703 40.550781 14.845703 C 40.519781 14.769703 40.478359 14.697047 40.443359 14.623047 C 40.376359 14.368047 40.251172 14.142891 40.076172 13.962891 C 39.807172 13.551891 39.488281 13.174562 39.113281 12.851562 C 38.474281 12.335562 38.164969 11.833828 38.167969 11.173828 C 40.355969 9.8868281 42.208609 7.9180781 43.474609 6.3300781 z M 5.3964844 6.3847656 C 7.3974844 8.8027656 10.385812 10.963188 13.132812 11.992188 C 12.581812 12.610188 12.019734 13.607234 11.677734 15.240234 C 11.671734 15.267234 11.659344 15.302078 11.652344 15.330078 C 11.023344 16.406078 9.8752812 17.832062 8.9882812 18.289062 C 5.8642812 15.936062 4.4294844 10.841766 5.3964844 6.3847656 z M 35.732422 25.873047 C 35.896422 27.246047 35.999 28.885 36 30.5 C 36 34.754 33.670453 38.208453 32.439453 39.439453 C 30.747453 41.131453 26.241047 44 24.998047 44 C 23.756047 44 19.251547 41.131453 17.560547 39.439453 C 17.102547 38.981453 16.334063 37.796813 15.664062 36.132812 C 17.336063 35.310812 20.059172 33.4825 22.076172 29.6875 C 22.321172 30.4295 22.501 31.234047 22.5 31.998047 C 22.5 32.544047 22.794484 33.046547 23.271484 33.310547 C 23.749484 33.575547 24.331922 33.561484 24.794922 33.271484 C 26.612922 32.135484 28.636188 29.736531 29.992188 27.519531 C 30.195187 27.880531 30.337516 28.115578 30.353516 28.142578 C 30.727516 28.756578 31.485156 29.018578 32.160156 28.767578 C 32.293156 28.718578 34.228422 27.955047 35.732422 25.873047 z M 31.5 30 C 30.672 30 30 31.12 30 32.5 C 30 33.88 30.672 35 31.5 35 C 32.004 35 32.448703 34.580359 32.720703 33.943359 C 32.306703 33.820359 32 33.453 32 33 C 32 32.459 32.432703 32.022859 32.970703 32.005859 C 32.832703 30.862859 32.226 30 31.5 30 z M 25 40 A 2 1 0 0 0 25 42 A 2 1 0 0 0 25 40 z"></path>
</svg>