<svg xmlns="http://www.w3.org/2000/svg"  viewBox="0 0 72 72" ><path d="M36,10c-1.139,0-2.277078.386609-3.205078,1.162109L11.517578,28.941406c-1.465,1.224-1.96564,3.328813-1.05664,5.007813C11.219708,35.3497,12.603889,36.065273,14,36.066406L14,50c0,4.418,3.582,8,8,8h28c4.418,0,8-3.582,8-8v-13.921875c1.17234-.000566,2.334392-.511455,3.126953-1.503906c1.377-1.724.985969-4.270547-.707031-5.685547L58,26.867188v-10.199219C58,15.194969,56.805984,14,55.333984,14h-2.666015C51.194969,14,50,15.194969,50,16.667969v3.513672L39.205078,11.162109C38.277078,10.386609,37.139,10,36,10Zm0,9.212891c.22775,0,.455125.077421.640625.232421L50,30.607422L50,49.5c0,.276-.224.5-.5.5h-7.5v-12c0-1.105-.895-2-2-2h-8c-1.105,0-2,.895-2,2v12h-7.5c-.276,0-.5-.224-.5-.5v-18.892578l13.359375-11.16211c.1855-.154999.412875-.232421.640625-.232421Z" transform="matrix(1.152716 0 0 1.152718-5.478345-3.192412)"/></svg>
